<svg xmlns="http://www.w3.org/2000/svg" xmlns:xlink="http://www.w3.org/1999/xlink"><symbol id="arrow" viewBox="0 0 317.878 317.878">
<path d="M315.607,70.237c-2.653-3.086-7.189-3.881-11.729-1.928l-38.042,16.369C240.674,43.314,195.163,15.63,143.309,15.63
	C64.288,15.63,0,79.918,0,158.939s64.288,143.309,143.309,143.309c11.046,0,20-8.954,20-20s-8.954-20-20-20
	C86.344,262.247,40,215.903,40,158.939S86.344,55.63,143.309,55.63c35.379,0,66.657,17.88,85.284,45.074l-36.271,15.607
	c-3.885,1.672-6.314,4.629-6.666,8.113c-0.351,3.483,1.44,6.866,4.913,9.279l93.503,64.979c2.129,1.479,4.448,2.262,6.706,2.262
	c0.001,0,0.001,0,0.001,0c5.028,0,8.98-3.77,9.832-9.379l17.103-112.572C318.239,75.538,317.491,72.429,315.607,70.237z"/>
<g>
</g>
<g>
</g>
<g>
</g>
<g>
</g>
<g>
</g>
<g>
</g>
<g>
</g>
<g>
</g>
<g>
</g>
<g>
</g>
<g>
</g>
<g>
</g>
<g>
</g>
<g>
</g>
<g>
</g>
</symbol><symbol id="plus" viewBox="0 0 341.4 341.4">
<g>
	<g>
		<polygon points="192,149.4 192,0 149.4,0 149.4,149.4 0,149.4 0,192 149.4,192 149.4,341.4 192,341.4 192,192 341.4,192
			341.4,149.4 		"/>
	</g>
</g>
<g>
</g>
<g>
</g>
<g>
</g>
<g>
</g>
<g>
</g>
<g>
</g>
<g>
</g>
<g>
</g>
<g>
</g>
<g>
</g>
<g>
</g>
<g>
</g>
<g>
</g>
<g>
</g>
<g>
</g>
</symbol><symbol id="reset" viewBox="0 0 357 357">
<g>
	<g id="close">
		<polygon points="357,35.7 321.3,0 178.5,142.8 35.7,0 0,35.7 142.8,178.5 0,321.3 35.7,357 178.5,214.2 321.3,357 357,321.3
			214.2,178.5 		"/>
	</g>
</g>
<g>
</g>
<g>
</g>
<g>
</g>
<g>
</g>
<g>
</g>
<g>
</g>
<g>
</g>
<g>
</g>
<g>
</g>
<g>
</g>
<g>
</g>
<g>
</g>
<g>
</g>
<g>
</g>
<g>
</g>
</symbol></svg>